<svg width="1500" height="1000" xmlns="http://www.w3.org/2000/svg">
 <g id="Layer_1">
  <title _mstHash="1" _mstTextHash="5637814">第 1 层</title>
  <path stroke="#7f0000" id="svg_1" d="m714.58491,731.55558c-286.51863,-5.33333 -401.38049,-42.66298 -346.84516,-139.33327c54.53533,-96.67029 155.218,-95.33333 346.84516,-95.33333c191.62716,0 294.49125,-6.67028 346.84516,95.33333c52.35391,102.00361 -60.32653,144.66659 -346.84516,139.33327z" opacity="undefined" stroke-width="5" fill="#7f3f00"/>
  <path stroke="#7f0000" id="svg_2" d="m707.38069,571.55568c-144.68103,0 -282.22266,-12.73301 -261.87267,-94c20.35,-81.26699 117.19164,-94 261.87267,-94c144.68103,0 239.38057,15.39967 261.87267,94c22.4921,78.60033 -117.19164,94 -261.87267,94z" opacity="undefined" stroke-width="5" fill="#7f3f00"/>
  <path transform="rotate(-0.237613 705.431 347.397)" stroke="#7f0000" id="svg_3" d="m701.58706,435.25179c-121.40256,0 -198.59022,-32.5555 -183.62303,-86.36083c14.96719,-53.80533 62.22047,-89.34818 183.62303,-89.34818c121.40256,0 182.36716,40.48354 192.33151,89.06618c9.96435,48.58264 -70.92894,86.64284 -192.33151,86.64284z" opacity="undefined" stroke-width="5" fill="#7f3f00"/>
  <path stroke="#7f0000" id="svg_4" d="m702.6429,309.55613c-67.45831,0 -137.20463,-17.55435 -122.09955,-72c15.10508,-54.44565 54.64124,-72 122.09955,-72c67.45831,0 110.77074,33.55433 122.09955,72c11.32881,38.44567 -54.64124,72 -122.09955,72z" opacity="undefined" stroke-width="5" fill="#7f3f00"/>
  <path id="svg_5" d="m701.3333,212.88893c-38.67404,0 -93.99998,-23.6059 -62.00002,-62.00001c31.99995,-38.3941 71.32592,-128.66658 75.33334,-87.3333c4.00742,41.33327 44.66671,67.60584 59.33336,93.99996c14.66665,26.39412 -33.99263,55.33335 -72.66667,55.33335z" opacity="undefined" stroke-width="5" stroke="#7f0000" fill="#7f3f00"/>
  <text _mstHash="612" _mstTextHash="2284555" xml:space="preserve" text-anchor="start" font-family="Noto Sans JP" font-size="200" id="svg_6" y="255.3435" x="63.34431" stroke-width="0" stroke="#7f0000" fill="#000000">我</text>
  <text style="cursor: move;" _mstHash="612" _mstTextHash="2380469" xml:space="preserve" text-anchor="start" font-family="Noto Sans JP" font-size="200" id="svg_8" y="265.34364" x="1151.35895" stroke-width="0" stroke="#7f0000" fill="#000000">是</text>
  <text style="cursor: move;" _mstHash="612" _mstTextHash="2406586" xml:space="preserve" text-anchor="start" font-family="Noto Sans JP" font-size="200" id="svg_9" y="615.34835" x="67.34436" stroke-width="0" stroke="#7f0000" fill="#000000">李</text>
  <text style="cursor: move;" _mstHash="612" _mstTextHash="3257709" xml:space="preserve" text-anchor="start" font-family="Noto Sans JP" font-size="200" id="svg_10" y="641.34869" x="1163.35908" stroke-width="0" stroke="#7f0000" fill="#000000">诗</text>
  <text style="cursor: move;" _mstHash="612" _mstTextHash="2222220" xml:space="preserve" text-anchor="start" font-family="Noto Sans JP" font-size="200" id="svg_11" y="925.35254" x="607.35166" stroke-width="0" stroke="#7f0000" fill="#000000">彤</text>
  <text _mstHash="678" _mstTextHash="2076893" xml:space="preserve" text-anchor="start" font-family="Noto Sans JP" font-size="200" id="svg_13" y="917.35243" x="141.34535" stroke-width="5" stroke="#7f3f00" fill="#ffaa56">大</text>
  <text _mstHash="678" _mstTextHash="1857765" xml:space="preserve" text-anchor="start" font-family="Noto Sans JP" font-size="200" id="svg_14" y="915.3524" x="1095.35822" stroke-width="5" stroke="#7f3f00" fill="#ffaa56">便</text>
 </g>
</svg>