<svg width="400" height="300" xmlns="http://www.w3.org/2000/svg">
 <g id="Layer_1">
  <title>Layer 1</title>
  <line stroke-width="1.5" stroke="#000" stroke-linecap="undefined" stroke-linejoin="undefined" id="svg_1" y2="280" x2="20" y1="30" x1="20" fill="none"/>
  <line stroke-linecap="undefined" stroke-linejoin="undefined" id="svg_2" y2="280" x2="370" y1="280" x1="20" stroke-width="1.5" stroke="#000" fill="none"/>
  <path id="svg_10" d="m342.40726,142.59252" opacity="undefined" stroke-width="1.5" stroke="#000" fill="none"/>
  <path transform="rotate(-18.3213 163.947 188.24)" id="svg_11" d="m-0.68223,229.87304c86.66664,38.33332 261.6666,-97.2222 329.25924,-89.81475" opacity="NaN" stroke-width="1.5" stroke="#3f7f00" fill="none"/>
  <path transform="rotate(-90 19.7778 32.9444)" stroke="null" stroke-width="0" id="svg_13" d="m12,39.30117l10.59135,-6.24054l-10.59135,-6.24059l2.48166,-0.82003l13.07389,7.06062l-11.40723,6.82826" fill="#000000"/>
  <path stroke="null" stroke-width="0" id="svg_14" d="m359,286.30117l10.59135,-6.24055l-10.59135,-6.24059l2.48166,-0.82003l13.07389,7.06062l-11.40722,6.82826" fill="#000000"/>
  <text xml:space="preserve" text-anchor="start" font-family="Noto Sans JP" font-size="12" id="svg_15" y="284" x="375" stroke-width="0" stroke="null" fill="#000000">时间</text>
  <text xml:space="preserve" text-anchor="start" font-family="Noto Sans JP" font-size="12" id="svg_16" y="19.00007" x="8.88898" stroke-width="0" stroke="null" fill="#000000">程度</text>
  <path id="svg_19" d="m20.18512,278.7036c39.44443,-0.55556 29.44444,0.55556 29.44444,0.55556c0,0 19.44444,-186.66662 19.25932,-187.03695c0.18512,0.37033 235.18506,-1.85189 235.18506,-1.85189" opacity="NaN" stroke-width="1.5" stroke="#ff0000" fill="none"/>
  <line id="svg_20" y2="30.37033" x2="324.07393" y1="30.37033" x1="295.18505" stroke-width="1.5" stroke="#ff0000" fill="none"/>
  <path id="svg_21" d="m300.74999,30.37033l28.88888,0" opacity="undefined" stroke-width="1.5" stroke="#ff0000" fill="none"/>
  <path stroke="#007f00" id="svg_22" d="m295.19444,40.75l34.44443,0" opacity="undefined" stroke-width="1.5" fill="none"/>
  <text style="cursor: move;" xml:space="preserve" text-anchor="start" font-family="Noto Sans JP" font-size="8" id="svg_23" y="33.44451" x="333.88891" stroke-width="0" stroke="null" fill="#000000">MT</text>
  <text xml:space="preserve" text-anchor="start" font-family="Noto Sans JP" font-size="8" id="svg_24" y="43.44451" x="334.44446" stroke-width="0" stroke="null" fill="#000000">CT</text>
 </g>
</svg>