<svg width="700" height="480" xmlns="http://www.w3.org/2000/svg">
 <g id="Layer_1">
  <title>Layer 1</title>
  <text xml:space="preserve" text-anchor="start" font-family="Noto Sans JP" font-size="30" id="svg_1" y="80" x="70" stroke-width="0" stroke="#000" fill="#000000">王湘琳</text>
  <text xml:space="preserve" text-anchor="start" font-family="Noto Sans JP" font-size="30" id="svg_2" y="360" x="550" stroke-width="0" stroke="#000" fill="#000000">陈诺</text>
  <text xml:space="preserve" text-anchor="start" font-family="Noto Sans JP" font-size="30" id="svg_3" y="418" x="70" stroke-width="0" stroke="#000" fill="#000000">瞿眀爔</text>
  <text xml:space="preserve" text-anchor="start" font-family="Noto Sans JP" font-size="30" id="svg_6" y="180" x="540" stroke-width="0" stroke="#000" fill="#000000">李诗彤</text>
  <text xml:space="preserve" text-anchor="start" font-family="Noto Sans JP" font-size="30" id="svg_7" y="312" x="70" stroke-width="0" stroke="#000" fill="#000000">陈旻希</text>
  <text xml:space="preserve" text-anchor="start" font-family="Noto Sans JP" font-size="30" id="svg_9" y="270" x="540" stroke-width="0" stroke="#000" fill="#000000">童钰轩</text>
  <text xml:space="preserve" text-anchor="start" font-family="Noto Sans JP" font-size="30" id="svg_10" y="80" x="540" stroke-width="0" stroke="#000" fill="#000000">余佳皓</text>
  <text xml:space="preserve" text-anchor="start" font-family="Noto Sans JP" font-size="30" id="svg_11" y="200" x="70" stroke-width="0" stroke="#000" fill="#000000">刘圭宥</text>
  <path transform="rotate(89.71 346.584 72.6078)" stroke="#000" id="svg_12" d="m334.63229,-56.83898l11.55391,-47.14586l12.35023,47.54659l-9.75456,-8.19027l-1.05345,313.82891l-3.75892,-0.31408l0.39021,-313.3643l-9.72742,7.639z" stroke-width="0" fill="#ffaaaa"/>
  <path transform="rotate(89.71 346.585 72.6077)" stroke="#000" id="svg_13" d="m334.63229,-56.83898l11.55391,-47.14586l12.35023,47.54659l-9.75456,-8.19027l-1.05345,313.82891l-3.75892,-0.31407l0.39021,-313.3643l-9.72742,7.639z" stroke-width="0" fill="#ffaaaa"/>
  <path transform="rotate(89.71 346.584 72.6078)" stroke="#000" id="svg_14" d="m334.63229,-56.83898l11.55391,-47.14586l12.35023,47.54659l-9.75456,-8.19027l-1.05345,313.82891l-3.75892,-0.31407l0.39021,-313.3643l-9.72742,7.639z" stroke-width="0" fill="#ffaaaa"/>
  <path transform="rotate(80.9728 350.433 377.824)" stroke="#000" id="svg_15" d="m338.48125,243.52252l11.55391,-48.91416l12.35023,49.32992l-9.75456,-8.49746l-1.05345,325.59971l-3.75892,-0.32585l0.39021,-325.11767l-9.72742,7.92552z" stroke-width="0" fill="#ffaaaa"/>
  <path transform="rotate(111.479 351.697 271.996)" stroke="#000" id="svg_16" d="m339.74472,131.42794l11.55391,-51.19619l12.35023,51.63135l-9.75456,-8.8939l-1.05345,340.79017l-3.75892,-0.34105l0.39021,-340.28565l-9.72742,8.29527z" stroke-width="0" fill="#ffaaaa"/>
  <path transform="rotate(86.9179 350.876 182.093)" stroke="#000" id="svg_18" d="m338.92409,52.6467l11.55391,-47.14586l12.35023,47.54659l-9.75456,-8.19027l-1.05345,313.82891l-3.75892,-0.31407l0.39021,-313.3643l-9.72742,7.639z" stroke-width="0" fill="#ffaaaa"/>
  <path stroke="#000" id="svg_19" d="m106.20981,219.28425l8.40167,-9.34459l8.98073,9.42402l-7.09323,-1.62336l-0.76604,62.20275l-2.73338,-0.06225l0.28375,-62.11066l-7.0735,1.5141z" stroke-width="0" fill="#ffaaaa"/>
  <path transform="rotate(99.6583 350.349 226.642)" stroke="#000" id="svg_20" d="m338.39663,95.42774l11.55391,-47.78953l12.35023,48.19573l-9.75456,-8.30209l-1.05345,318.11355l-3.75892,-0.31836l0.39021,-317.6426l-9.72742,7.74329z" stroke-width="0" fill="#ffaaaa"/>
 </g>
</svg>